<svg width="825" height="158" viewBox="0 0 825 158" fill="none" xmlns="http://www.w3.org/2000/svg">
<path d="M102.422 76.138C95.1656 82.447 100.744 105.878 104.932 114.543C102.395 114.335 92.6204 119.254 90.391 117.927C88.9018 117.034 78.6756 91.1388 75.3902 88.0249C55.0552 68.7911 41.9859 102.06 51.1741 121.98C42.4552 122.44 30.7488 120.346 22.0931 117.819C19.2681 113.875 23.8712 84.4056 24.9543 77.8529C29.6296 49.4669 31.9492 32.688 61.2017 21.3336C88.6039 10.6923 121.033 14.4831 138.2 40.1704C144.726 49.9272 153.806 74.5856 155.259 86.1386C156.83 98.7024 147.344 100.977 138.047 104.298C130.213 94.1354 118.037 62.5633 102.404 76.147L102.422 76.138ZM106.43 36.7496C103.614 37.3904 98.9023 41.9123 97.4311 44.3944C88.9559 58.7364 106.34 75.768 120.979 65.5237C135.619 55.2795 124.96 32.4985 106.43 36.7406V36.7496ZM59.9291 45.2699C34.5216 45.8025 42.1664 85.597 66.2742 76.2915C83.3329 69.7117 77.6286 44.8999 59.9291 45.2699Z" fill="#BE96FF"/>
<path d="M72.1046 135.725C55.5333 136.231 24.8728 133.523 15.134 127.539C14.4029 127.088 11.3973 125.156 7.6336 125.49C4.60095 125.761 0.864286 127.521 0.1332 130.265C-0.850608 133.92 3.86986 138.027 5.93676 139.814C12.7873 145.762 40.0361 161.304 89.8582 156.873C89.8582 156.873 127.414 153.533 161.153 131.628C163.4 130.166 165.115 128.045 165.25 127.873C166.081 126.835 169.926 121.988 168.662 117.295C167.742 113.901 164.555 112.069 163.545 111.491C153.878 105.958 136.539 118.17 115.789 126.158C107.702 129.272 92.2049 135.094 72.1226 135.707L72.1046 135.725Z" fill="#BE96FF"/>
<path d="M199.008 94.5501C196.661 109.695 187.202 118.342 181.245 131.98C180.036 134.742 176.001 134.318 175.414 131.357C173.979 124.173 173.329 117.403 174.62 111.446C174.981 109.768 173.907 108.107 172.219 107.791C168.807 107.132 165.45 106.347 162.083 105.038C161.262 104.722 161.009 103.684 161.587 103.025C163.563 100.751 164.935 98.6117 165.703 95.7054C165.901 94.9563 166.533 94.3967 167.3 94.2884C177.436 92.8713 186.787 91.0842 195.957 90.9759C197.852 90.9488 199.296 92.6637 199.008 94.5411V94.5501Z" fill="#BE96FF"/>
<path d="M286.822 90.9015C286.822 96.6408 285.507 101.782 282.877 106.326C280.246 110.869 276.579 114.456 271.876 117.087C267.173 119.638 261.673 120.913 255.376 120.913C248.521 120.913 242.503 119.438 237.321 116.489C232.22 113.46 228.234 109.275 225.365 103.934C222.575 98.5937 221.18 92.4958 221.18 85.6405C221.18 78.7056 222.575 72.5678 225.365 67.2271C228.234 61.8864 232.22 57.7015 237.321 54.6724C242.503 51.6434 248.521 50.1288 255.376 50.1288C261.434 50.1288 266.815 51.4839 271.518 54.1941C276.221 56.8246 279.888 60.2921 282.518 64.5966C285.228 68.8213 286.583 73.4047 286.583 78.3469H268.529C268.529 76.1947 268.09 74.162 267.213 72.2489C266.336 70.3358 264.942 68.7814 263.028 67.5858C261.115 66.3104 258.565 65.6727 255.376 65.6727C251.311 65.6727 248.043 66.5495 245.571 68.3032C243.1 70.0568 241.307 72.4482 240.191 75.4773C239.155 78.5063 238.637 81.8941 238.637 85.6405C238.637 89.3073 239.155 92.6552 240.191 95.6842C241.307 98.6336 243.1 100.985 245.571 102.739C248.043 104.492 251.311 105.369 255.376 105.369C258.565 105.369 261.155 104.692 263.148 103.337C265.141 101.981 266.615 100.228 267.572 98.0756C268.529 95.8437 269.007 93.4523 269.007 90.9015H286.822ZM326.72 120.913C319.865 120.913 313.846 119.438 308.665 116.489C303.564 113.46 299.578 109.275 296.708 103.934C293.918 98.5937 292.523 92.4958 292.523 85.6405C292.523 78.7056 293.918 72.5678 296.708 67.2271C299.578 61.8864 303.564 57.7015 308.665 54.6724C313.846 51.6434 319.904 50.1288 326.839 50.1288C333.695 50.1288 339.673 51.6434 344.775 54.6724C349.876 57.7015 353.822 61.8864 356.612 67.2271C359.481 72.5678 360.916 78.7056 360.916 85.6405C360.916 92.4958 359.481 98.5937 356.612 103.934C353.822 109.275 349.876 113.46 344.775 116.489C339.673 119.438 333.655 120.913 326.72 120.913ZM326.839 105.608C330.666 105.608 333.774 104.732 336.166 102.978C338.637 101.145 340.47 98.7133 341.666 95.6842C342.862 92.6552 343.459 89.3073 343.459 85.6405C343.459 81.8941 342.862 78.5063 341.666 75.4773C340.47 72.3685 338.637 69.9373 336.166 68.1836C333.774 66.3502 330.666 65.4335 326.839 65.4335C322.934 65.4335 319.745 66.3502 317.274 68.1836C314.803 69.9373 312.97 72.3685 311.774 75.4773C310.578 78.5063 309.98 81.8941 309.98 85.6405C309.98 89.3073 310.578 92.6552 311.774 95.6842C312.97 98.7133 314.803 101.145 317.274 102.978C319.745 104.732 322.934 105.608 326.839 105.608ZM402.056 119L380.414 35.3024H398.11L418.556 119H402.056ZM426.568 119H410.067L430.513 35.3024H448.209L426.568 119ZM370.131 35.3024H386.871V119H370.131V35.3024ZM441.753 35.3024H458.492V119H441.753V35.3024ZM501.868 120.913C495.013 120.913 488.995 119.438 483.813 116.489C478.712 113.46 474.726 109.275 471.857 103.934C469.067 98.5937 467.672 92.4958 467.672 85.6405C467.672 78.7056 469.067 72.5678 471.857 67.2271C474.726 61.8864 478.712 57.7015 483.813 54.6724C488.995 51.6434 495.053 50.1288 501.988 50.1288C508.843 50.1288 514.821 51.6434 519.923 54.6724C525.025 57.7015 528.97 61.8864 531.76 67.2271C534.63 72.5678 536.065 78.7056 536.065 85.6405C536.065 92.4958 534.63 98.5937 531.76 103.934C528.97 109.275 525.025 113.46 519.923 116.489C514.821 119.438 508.803 120.913 501.868 120.913ZM501.988 105.608C505.814 105.608 508.923 104.732 511.314 102.978C513.785 101.145 515.619 98.7133 516.814 95.6842C518.01 92.6552 518.608 89.3073 518.608 85.6405C518.608 81.8941 518.01 78.5063 516.814 75.4773C515.619 72.3685 513.785 69.9373 511.314 68.1836C508.923 66.3502 505.814 65.4335 501.988 65.4335C498.082 65.4335 494.893 66.3502 492.422 68.1836C489.951 69.9373 488.118 72.3685 486.922 75.4773C485.727 78.5063 485.129 81.8941 485.129 85.6405C485.129 89.3073 485.727 92.6552 486.922 95.6842C488.118 98.7133 489.951 101.145 492.422 102.978C494.893 104.732 498.082 105.608 501.988 105.608ZM580.797 120.913C575.377 120.913 570.993 119.837 567.645 117.685C564.297 115.533 561.706 112.543 559.873 108.717C558.039 104.891 556.684 100.507 555.807 95.5647L555.568 75.9555C556.605 70.5351 558.119 65.9118 560.112 62.0856C562.105 58.2595 564.775 55.3101 568.123 53.2376C571.471 51.1651 575.696 50.1288 580.797 50.1288C587.174 50.1288 592.595 51.6434 597.058 54.6724C601.522 57.7015 604.95 61.8864 607.341 67.2271C609.733 72.5678 610.928 78.7056 610.928 85.6405C610.928 92.4958 609.733 98.5937 607.341 103.934C604.95 109.275 601.522 113.46 597.058 116.489C592.595 119.438 587.174 120.913 580.797 120.913ZM544.568 119V29.324H561.666V119H544.568ZM577.808 105.608C581.315 105.608 584.225 104.732 586.536 102.978C588.848 101.145 590.562 98.7133 591.678 95.6842C592.873 92.6552 593.471 89.3073 593.471 85.6405C593.471 81.8941 592.873 78.5063 591.678 75.4773C590.562 72.3685 588.848 69.9373 586.536 68.1836C584.225 66.3502 581.315 65.4335 577.808 65.4335C574.141 65.4335 571.112 66.3502 568.721 68.1836C566.329 69.9373 564.536 72.3685 563.34 75.4773C562.224 78.5063 561.666 81.8941 561.666 85.6405C561.666 89.3073 562.224 92.6552 563.34 95.6842C564.536 98.7133 566.329 101.145 568.721 102.978C571.112 104.732 574.141 105.608 577.808 105.608ZM624.431 52.0419H641.529V119H624.431V52.0419ZM619.648 28.1283L637.942 23.9435L642.127 42.2374L623.833 46.4222L619.648 28.1283ZM653.627 29.324H670.725V119H653.627V29.324ZM687.017 52.0419H704.116V119H687.017V52.0419ZM682.235 28.1283L700.529 23.9435L704.713 42.2374L686.42 46.4222L682.235 28.1283ZM721.105 119V35.3024H738.203V104.413H753.029V119H721.105ZM713.452 66.6292V52.0419H751.116V66.6292H713.452ZM785.315 119L803.251 52.0419H821.544L801.218 119H785.315ZM766.065 142.914V128.326H780.891L786.152 113.261H803.011L793.446 142.914H766.065ZM778.141 119L757.815 52.0419H776.109L794.044 119H778.141Z" fill="#BE96FF"/>
</svg>
