<svg width="200" height="158" viewBox="0 0 200 158" fill="none" xmlns="http://www.w3.org/2000/svg">
<path d="M102.422 76.138C95.1656 82.447 100.744 105.878 104.932 114.543C102.395 114.335 92.6204 119.254 90.391 117.927C88.9018 117.034 78.6756 91.1388 75.3902 88.0249C55.0552 68.7911 41.9859 102.06 51.1741 121.98C42.4552 122.44 30.7488 120.346 22.0931 117.819C19.2681 113.875 23.8712 84.4056 24.9543 77.8529C29.6296 49.4669 31.9492 32.688 61.2017 21.3336C88.6039 10.6923 121.033 14.4831 138.2 40.1704C144.726 49.9272 153.806 74.5856 155.259 86.1386C156.83 98.7024 147.344 100.977 138.047 104.298C130.213 94.1354 118.037 62.5633 102.404 76.147L102.422 76.138ZM106.43 36.7496C103.614 37.3904 98.9023 41.9123 97.4311 44.3944C88.9559 58.7364 106.34 75.768 120.979 65.5237C135.619 55.2795 124.96 32.4985 106.43 36.7406V36.7496ZM59.9291 45.2699C34.5216 45.8025 42.1664 85.597 66.2742 76.2915C83.3329 69.7117 77.6286 44.8999 59.9291 45.2699Z" fill="#BE96FF"/>
<path d="M72.1046 135.725C55.5333 136.231 24.8728 133.523 15.134 127.539C14.4029 127.088 11.3973 125.156 7.6336 125.49C4.60095 125.761 0.864286 127.521 0.1332 130.265C-0.850608 133.92 3.86986 138.027 5.93676 139.814C12.7873 145.762 40.0361 161.304 89.8582 156.873C89.8582 156.873 127.414 153.533 161.153 131.628C163.4 130.166 165.115 128.045 165.25 127.873C166.081 126.835 169.926 121.988 168.662 117.295C167.741 113.901 164.555 112.069 163.545 111.491C153.878 105.958 136.539 118.17 115.789 126.158C107.702 129.272 92.2049 135.094 72.1226 135.707L72.1046 135.725Z" fill="#BE96FF"/>
<path d="M199.008 94.5501C196.661 109.695 187.202 118.342 181.245 131.98C180.036 134.742 176.001 134.318 175.414 131.357C173.979 124.173 173.329 117.403 174.62 111.446C174.981 109.768 173.907 108.107 172.219 107.791C168.807 107.132 165.45 106.347 162.083 105.038C161.262 104.722 161.009 103.684 161.587 103.025C163.563 100.751 164.935 98.6117 165.703 95.7054C165.901 94.9563 166.533 94.3967 167.3 94.2884C177.436 92.8713 186.787 91.0842 195.957 90.9759C197.852 90.9488 199.296 92.6637 199.008 94.5411V94.5501Z" fill="#BE96FF"/>
</svg>
