<svg width="142" height="93" viewBox="0 0 142 93" fill="none" xmlns="http://www.w3.org/2000/svg">
<path d="M66.7356 85.74C68.1154 89.553 72.4682 91.9414 77.3331 91.9414C84.1184 91.9414 87.6746 85.1673 85.0857 78.952L55.8109 10.1778C47.7738 -4.97658 27.6883 -1.6105 22.5389 10.1778L1.71367 55.8224C1.62832 55.976 1.5572 56.1297 1.5003 56.2833C-4.90089 73.0718 10.2059 92.3464 27.4038 91.9414C39.8364 91.9414 48.9687 84.0639 54.0186 70.2644C54.3315 69.3985 54.2177 68.4347 53.7341 67.6386L47.66 54.8307C46.4082 52.7636 43.3499 52.8055 42.155 54.9006L34.5305 67.8481C27.6172 80.1811 14.004 69.8035 20.3056 58.9929L33.0653 30.1368C36.8349 20.3459 42.5106 23.5025 44.872 30.1368L66.7356 85.74Z" fill="#EC6617"/>
<path d="M102.312 91.2008C98.4711 91.2008 94.8154 89.0217 93.151 85.3624L62.0555 13.8647C59.7937 8.89238 62.0555 3.06809 67.1195 0.861283C72.1836 -1.35949 78.1153 0.861283 80.3629 5.83358L111.458 77.3313C113.72 82.3035 111.458 88.128 106.394 90.3348C105.057 90.9214 103.677 91.2008 102.312 91.2008Z" fill="#039ACB"/>
<path d="M128.869 91.2008C125.029 91.2008 121.373 89.0217 119.709 85.3624L88.6131 13.8647C86.3513 8.89238 88.6131 3.06809 93.6771 0.861283C98.7412 -1.35949 104.673 0.861283 106.92 5.83358L138.016 77.3313C140.278 82.3035 138.016 88.128 132.952 90.3348C131.615 90.9214 130.235 91.2008 128.869 91.2008Z" fill="#039ACB"/>
</svg>
